<!DOCTYPE svg PUBLIC "-//W3C//DTD SVG 1.1//EN" "http://www.w3.org/Graphics/SVG/1.1/DTD/svg11.dtd">

<!-- Uploaded to: SVG Repo, www.svgrepo.com, Transformed by: SVG Repo Mixer Tools -->
<svg width="800px" height="800px" viewBox="0 0 24 24" fill="none" xmlns="http://www.w3.org/2000/svg">

<g id="SVGRepo_bgCarrier" stroke-width="0"/>

<g id="SVGRepo_tracerCarrier" stroke-linecap="round" stroke-linejoin="round" stroke="#CCCCCC" stroke-width="2.88"> <path d="M9.29937 5.68122C10.6377 3.85696 13.3623 3.85696 14.7006 5.68122L15.4675 6.72652C17.127 8.98854 18.1662 11.6451 18.4823 14.4327V14.4327C18.781 17.0685 17.1309 19.534 14.5803 20.2628L13.8118 20.4824C12.6276 20.8207 11.3724 20.8207 10.1882 20.4824L9.41969 20.2628C6.86912 19.534 5.21896 17.0685 5.51775 14.4327V14.4327C5.83375 11.6451 6.87303 8.98854 8.53251 6.72652L9.29937 5.68122Z" stroke="#ffffff"/> </g>

<g id="SVGRepo_iconCarrier"> <path d="M9.29937 5.68122C10.6377 3.85696 13.3623 3.85696 14.7006 5.68122L15.4675 6.72652C17.127 8.98854 18.1662 11.6451 18.4823 14.4327V14.4327C18.781 17.0685 17.1309 19.534 14.5803 20.2628L13.8118 20.4824C12.6276 20.8207 11.3724 20.8207 10.1882 20.4824L9.41969 20.2628C6.86912 19.534 5.21896 17.0685 5.51775 14.4327V14.4327C5.83375 11.6451 6.87303 8.98854 8.53251 6.72652L9.29937 5.68122Z" stroke="#ffffff"/> </g>

</svg>